<svg width="78" height="43" viewBox="0 0 78 43" fill="none" xmlns="http://www.w3.org/2000/svg">
<path d="M60.0573 12.8793C62.467 14.8189 64.0142 16.7317 64.5296 19.962C64.6997 21.0284 64.6158 21.7995 64.6064 22.726C64.6087 22.958 64.6111 23.19 64.6136 23.429C64.599 27.675 62.6818 31.6194 59.7538 34.6468C56.2344 37.7846 52.3204 39.1257 47.6554 39.0675C44.4488 38.8461 41.8577 37.3859 39.7114 35.0295C38.8265 33.9614 38.144 32.8609 37.5041 31.6321C37.3473 31.8382 37.3473 31.8382 37.1874 32.0484C35.6865 33.9205 33.953 35.1624 31.669 35.9317C29.5565 36.1533 27.6723 36.121 25.8339 35.0103C24.7169 33.8631 24.0552 32.7025 23.9205 31.0935C23.9249 30.8089 23.9292 30.5242 23.9337 30.231C23.9357 29.9455 23.9377 29.6601 23.9397 29.366C23.9859 28.6451 24.0952 28.0235 24.2984 27.3326C24.5011 27.3326 24.7038 27.3326 24.9126 27.3326C25.0013 27.5797 25.09 27.8267 25.1813 28.0812C25.4447 28.9089 25.4447 28.9089 26.1411 29.1753C27.3192 29.2844 28.0286 29.3433 29.0394 28.6954C29.7077 27.6529 29.6901 27.0143 29.5192 25.7971C28.6152 23.9889 26.6897 23.446 24.9126 22.726C24.8711 22.9129 24.8295 23.0997 24.7867 23.2922C23.496 28.5475 20.9291 34.3336 16.3136 37.4672C13.893 38.7259 11.3133 38.7682 8.63588 38.3885C5.85161 37.4455 3.88652 35.158 2.58969 32.5919C1.94705 31.0682 1.53922 29.5155 1.16931 27.9085C1.11659 27.6813 1.06386 27.4541 1.00954 27.22C0.664198 25.594 0.606651 24.0804 0.651068 22.4189C0.888597 22.7419 0.888597 22.7419 1.13092 23.0715C2.8785 25.1327 4.61447 26.5087 7.35347 26.8156C10.3829 26.9358 12.5213 26.1999 14.8164 24.2232C18.55 20.6355 20.8424 16.2772 23.07 11.6701C34.74 14.2183 34.74 14.2183 37.8112 18.1194C37.9731 18.3181 38.135 18.5168 38.3018 18.7216C39.6663 20.8272 39.4265 23.1024 39.2093 25.5111C39.1082 27.1698 39.1082 27.1698 39.8452 28.6063C41.929 30.4823 44.3193 31.5763 47.154 31.4426C49.5721 31.0835 51.9118 30.1928 53.4737 28.254C54.9535 26.008 55.8051 23.8908 55.3163 21.1905C54.9163 19.9703 54.3738 19.0481 53.5121 18.1002C52.5471 17.6745 52.0088 17.7887 51.0168 18.1194C49.5405 19.6755 49.3861 20.7308 49.4189 22.8148C49.4987 23.8793 49.5985 24.4541 50.4026 25.1829C51.4714 25.3643 52.4857 25.3697 53.4737 24.8758C53.3981 26.4244 52.9023 27.2923 51.8722 28.3931C50.1962 29.8454 48.2213 29.96 46.0719 29.8951C44.2269 29.6763 42.9763 28.916 41.7076 27.5822C40.0915 25.5125 39.6723 23.1501 39.9609 20.5762C40.597 17.3267 42.1387 14.7916 44.8747 12.8985C49.6891 10.318 55.2349 10.1612 60.0573 12.8793Z" fill="white"/>
<path d="M76.8139 0C76.9659 0.304037 76.9659 0.304037 77.121 0.614217C76.9809 0.923185 76.9809 0.923185 76.838 1.2384C76.3722 2.52019 76.4221 3.70785 76.4284 5.06144C76.4267 5.49845 76.4267 5.49845 76.425 5.94429C76.4229 6.57603 76.4221 7.20776 76.4225 7.8395C76.4228 8.84166 76.4188 9.84373 76.4136 10.8459C76.3994 13.6949 76.3919 16.544 76.3898 19.3931C76.3883 21.1373 76.3808 22.8813 76.3698 24.6255C76.3668 25.2878 76.366 25.9502 76.3677 26.6126C76.3784 31.171 76.3446 34.863 73.0134 38.3202C71.6552 39.4702 70.1497 40.1546 68.522 40.8454C68.1123 41.0354 68.1123 41.0354 67.6942 41.2293C65.8702 42.0738 65.8702 42.0738 65.1438 42.0738C65.2092 41.9087 65.2747 41.7435 65.3421 41.5734C66.3002 38.7184 66.182 35.8511 66.1631 32.8773C66.1574 31.8943 66.1583 30.9114 66.161 29.9283C66.1676 27.1356 66.1643 24.3429 66.1526 21.5501C66.1459 19.8357 66.1482 18.1214 66.1558 16.407C66.1569 15.7577 66.1546 15.1084 66.1487 14.4592C66.1098 10.1114 66.2521 6.88924 69.4049 3.58933C71.5158 1.86159 74.248 0.855315 76.8139 0Z" fill="white"/>
<path d="M73.1286 15.6625C73.9156 16.1616 73.9156 16.1616 74.357 16.8909C74.4914 18.0042 74.4914 18.0042 74.357 19.0407C74.053 19.2434 73.749 19.4461 73.4357 19.6549C73.233 19.3509 73.0303 19.0468 72.8215 18.7336C72.3148 18.8349 71.808 18.9363 71.286 19.0407C71.3873 19.5474 71.4887 20.0542 71.5931 20.5762C73.2125 20.4395 74.6696 20.2434 76.1997 19.6549C76.408 20.0819 76.6119 20.511 76.8139 20.9409C76.9279 21.1797 77.0419 21.4184 77.1594 21.6643C77.462 22.514 77.8833 23.1775 77.4281 23.9544C77.1065 24.5034 76.8643 24.4535 76.0845 24.8758C75.8038 25.0286 75.5232 25.1814 75.234 25.3388C74.9446 25.4901 74.6552 25.6413 74.357 25.7971C74.0962 25.9483 73.8353 26.0995 73.5665 26.2553C71.9054 27.1785 70.4258 27.8036 68.522 27.3326C67.1572 26.6866 66.0213 26.0585 65.3729 24.6586C65.2595 24.3101 65.2595 24.3101 65.1438 23.9544C66.3599 23.8024 66.3599 23.8024 67.6007 23.6473C67.4486 23.4003 67.2966 23.1533 67.14 22.8988C66.4814 21.3347 66.3119 19.9667 66.9493 18.3605C68.3649 15.8517 70.3009 14.8218 73.1286 15.6625Z" fill="#7DA081"/>
<path d="M55.3163 0.614216C55.6773 1.45771 56.0351 2.30231 56.3912 3.14786C56.4937 3.38658 56.5963 3.62529 56.7019 3.87124C56.8474 4.21863 56.8474 4.21863 56.9958 4.57303C57.0859 4.78532 57.1759 4.99762 57.2687 5.21634C57.4661 5.83506 57.4661 5.83506 57.4661 7.06349C51.0458 9.83268 51.0458 9.83268 47.9355 8.67341C47.1756 8.19347 47.0103 7.8039 46.6741 6.97711C46.5672 6.7186 46.4603 6.46009 46.3502 6.19375C46.2433 5.92336 46.1364 5.65297 46.0263 5.37439C45.9147 5.10401 45.803 4.83362 45.688 4.55504C44.8746 2.55834 44.8746 2.55834 44.8746 1.84265C45.0397 1.89095 45.2048 1.93924 45.3749 1.98901C48.207 2.61423 50.6271 2.1106 53.2349 0.950115C54.0879 0.614216 54.0879 0.614216 55.3163 0.614216Z" fill="white"/>
<path d="M57.466 38.6956C57.0437 40.0779 56.5373 40.6871 55.3163 41.4596C52.3973 42.7144 49.8694 43.0456 46.7172 42.9951C46.3313 42.1027 46.103 41.5222 46.103 40.5383C46.3857 40.5268 46.6683 40.5153 46.9596 40.5035C50.0607 40.3424 53.053 39.965 56.0157 38.9728C56.8518 38.6956 56.8518 38.6956 57.466 38.6956Z" fill="#7FA283"/>
<path d="M77.1211 8.90614C76.6987 10.2884 76.1923 10.8976 74.9713 11.6701C72.0524 12.9249 69.5244 13.2561 66.3723 13.2057C65.9863 12.3132 65.7581 11.7327 65.7581 10.7488C66.0407 10.7373 66.3234 10.7258 66.6146 10.714C69.7157 10.5529 72.708 10.1755 75.6707 9.18326C76.5068 8.90614 76.5068 8.90614 77.1211 8.90614Z" fill="#7FA283"/>
</svg>
